<svg xmlns="http://www.w3.org/2000/svg" xmlns:xlink="http://www.w3.org/1999/xlink" viewBox="0 0 500 500" width="500" height="500" preserveAspectRatio="xMidYMid meet" style="width: 100%; height: 100%; transform: translate3d(0px, 0px, 0px); content-visibility: visible;"><defs><clipPath id="__lottie_element_1289"><rect width="500" height="500" x="0" y="0"/></clipPath><clipPath id="__lottie_element_1291"><path d="M0,0 L500,0 L500,500 L0,500z"/></clipPath></defs><g clip-path="url(#__lottie_element_1289)"><g clip-path="url(#__lottie_element_1291)" transform="matrix(1,0,0,1,0,0)" opacity="1" style="display: block;"><g class="primary design" style="display: none;"><g><path stroke-linecap="round" stroke-linejoin="round" fill-opacity="0" class="primary"/></g><g><path stroke-linecap="round" stroke-linejoin="round" fill-opacity="0" class="primary"/></g></g><g class="primary design" transform="matrix(1,0,0,1,277.85198974609375,396.0450134277344)" opacity="1" style="display: block;"><g opacity="1" transform="matrix(1,0,0,1,0,0)"><path stroke-linecap="round" stroke-linejoin="round" fill-opacity="0" class="primary" stroke="rgb(18,19,49)" stroke-opacity="1" stroke-width="42" d=" M-201.00836181640625,0 C-201.00836181640625,0 -50.33107376098633,0.023711267858743668 -50.33107376098633,0.023711267858743668"/></g></g><g class="primary design" transform="matrix(1,0,0,1,277.85198974609375,396.0450134277344)" opacity="1" style="display: none;"><g opacity="1" transform="matrix(1,0,0,1,0,0)"><path stroke-linecap="round" stroke-linejoin="round" fill-opacity="0" class="primary" stroke="rgb(18,19,49)" stroke-opacity="1" stroke-width="42" d=" M-201.71299743652344,0 C-139.8280029296875,0 158.85499572753906,0 158.85499572753906,0"/></g></g><g class="primary design" transform="matrix(1,0,0,1,0,0)" opacity="1" style="display: none;"><g opacity="1" transform="matrix(1,0,0,1,314.6289978027344,153.08599853515625)"><path class="primary" fill="rgb(18,19,49)" fill-opacity="1" d=" M57.91699981689453,31.913999557495117 C66.2509994506836,23.371999740600586 70.83300018310547,12.331000328063965 70.83300018310547,0.4560000002384186 C70.83300018310547,-11.418999671936035 66.2509994506836,-22.459999084472656 57.08399963378906,-31.62700080871582 C57.08399963378906,-31.62700080871582 29.16699981689453,-56.83599853515625 29.16699981689453,-56.83599853515625 C12.50100040435791,-73.50199890136719 -17.08300018310547,-73.08499908447266 -33.125,-57.04399871826172 C-33.125,-57.04399871826172 -70.83300018310547,-21.209999084472656 -70.83300018310547,-21.209999084472656 C-70.83300018310547,-21.209999084472656 19.58300018310547,69.20600128173828 19.58300018310547,69.20600128173828 C19.58300018310547,69.20600128173828 57.91699981689453,31.913999557495117 57.91699981689453,31.913999557495117z"/></g><g opacity="1" transform="matrix(1,0,0,1,250.04600524902344,288.64599609375)"><path class="primary" fill="rgb(18,19,49)" fill-opacity="1" d=" M187.5,86.35399627685547 C187.5,86.35399627685547 -73.46099853515625,86.35399627685547 -73.46099853515625,86.35399627685547 C-73.46099853515625,86.35399627685547 54.16600036621094,-37.395999908447266 54.16600036621094,-37.395999908447266 C54.16600036621094,-37.395999908447266 -36.45800018310547,-128.02099609375 -36.45800018310547,-128.02099609375 C-36.45800018310547,-128.02099609375 -201.875,29.687999725341797 -201.875,29.687999725341797 C-206.04200744628906,33.4379997253418 -208.33299255371094,39.0620002746582 -208.33299255371094,44.6870002746582 C-208.33299255371094,44.6870002746582 -208.33299255371094,107.18699645996094 -208.33299255371094,107.18699645996094 C-208.33299255371094,118.6449966430664 -198.95799255371094,128.02099609375 -187.5,128.02099609375 C-187.5,128.02099609375 -125,128.02099609375 -125,128.02099609375 C-125,128.02099609375 187.5,128.02099609375 187.5,128.02099609375 C198.95799255371094,128.02099609375 208.33299255371094,118.6449966430664 208.33299255371094,107.18699645996094 C208.33299255371094,95.72899627685547 198.95799255371094,86.35399627685547 187.5,86.35399627685547z"/></g></g><g class="primary design" transform="matrix(1,0,0,1,0,0)" opacity="1" style="display: none;"><g opacity="1" transform="matrix(1,0,0,1,314.6289978027344,153.08599853515625)"><path class="primary" fill="rgb(18,19,49)" fill-opacity="1" d=" M57.91699981689453,31.913999557495117 C66.2509994506836,23.371999740600586 70.83300018310547,12.331000328063965 70.83300018310547,0.4560000002384186 C70.83300018310547,-11.418999671936035 66.2509994506836,-22.459999084472656 57.08399963378906,-31.62700080871582 C57.08399963378906,-31.62700080871582 29.16699981689453,-56.83599853515625 29.16699981689453,-56.83599853515625 C12.50100040435791,-73.50199890136719 -17.08300018310547,-73.08499908447266 -33.125,-57.04399871826172 C-33.125,-57.04399871826172 -70.83300018310547,-21.209999084472656 -70.83300018310547,-21.209999084472656 C-70.83300018310547,-21.209999084472656 19.58300018310547,69.20600128173828 19.58300018310547,69.20600128173828 C19.58300018310547,69.20600128173828 57.91699981689453,31.913999557495117 57.91699981689453,31.913999557495117z"/></g><g opacity="1" transform="matrix(1,0,0,1,250.04600524902344,288.64599609375)"><path class="primary" fill="rgb(18,19,49)" fill-opacity="1" d=" M187.5,86.35399627685547 C187.5,86.35399627685547 -73.46099853515625,86.35399627685547 -73.46099853515625,86.35399627685547 C-73.46099853515625,86.35399627685547 54.16600036621094,-37.395999908447266 54.16600036621094,-37.395999908447266 C54.16600036621094,-37.395999908447266 -36.45800018310547,-128.02099609375 -36.45800018310547,-128.02099609375 C-36.45800018310547,-128.02099609375 -201.875,29.687999725341797 -201.875,29.687999725341797 C-206.04200744628906,33.4379997253418 -208.33299255371094,39.0620002746582 -208.33299255371094,44.6870002746582 C-208.33299255371094,44.6870002746582 -208.33299255371094,107.18699645996094 -208.33299255371094,107.18699645996094 C-208.33299255371094,118.6449966430664 -198.95799255371094,128.02099609375 -187.5,128.02099609375 C-187.5,128.02099609375 -125,128.02099609375 -125,128.02099609375 C-125,128.02099609375 187.5,128.02099609375 187.5,128.02099609375 C198.95799255371094,128.02099609375 208.33299255371094,118.6449966430664 208.33299255371094,107.18699645996094 C208.33299255371094,95.72899627685547 198.95799255371094,86.35399627685547 187.5,86.35399627685547z"/></g></g><g class="primary design" transform="matrix(0.9963883757591248,-0.08491260558366776,0.08491260558366776,0.9963883757591248,-17.144081115722656,-9.53033447265625)" opacity="1" style="display: block;"><g opacity="1" transform="matrix(1,0,0,1,314.6289978027344,153.08599853515625)"><path class="primary" fill="rgb(18,19,49)" fill-opacity="1" d=" M45.469058990478516,44.19346618652344 C53.80305862426758,35.651466369628906 58.385231018066406,24.61029624938965 58.385231018066406,12.735296249389648 C58.385231018066406,0.860296368598938 53.80323028564453,-10.180704116821289 44.63623046875,-19.34770393371582 C44.63623046875,-19.34770393371582 16.719058990478516,-44.556705474853516 16.719058990478516,-44.556705474853516 C0.05305976793169975,-61.22270202636719 -29.53076934814453,-60.805702209472656 -45.57276916503906,-44.76470184326172 C-45.57276916503906,-44.76470184326172 -83.20878601074219,-9.103460311889648 -83.20878601074219,-9.103460311889648 C-83.20878601074219,-9.103460311889648 7.207213401794434,81.31237030029297 7.207213401794434,81.31237030029297 C7.207213401794434,81.31237030029297 45.469058990478516,44.19346618652344 45.469058990478516,44.19346618652344z"/></g><g opacity="1" transform="matrix(1,0,0,1,250.04600524902344,288.64599609375)"><path class="primary" fill="rgb(18,19,49)" fill-opacity="1" d=" M43.32274627685547,-26.662433624267578 C43.32274627685547,-26.662433624267578 -47.30125427246094,-117.28743743896484 -47.30125427246094,-117.28743743896484 C-47.30125427246094,-117.28743743896484 -201.875,29.687999725341797 -201.875,29.687999725341797 C-206.04200744628906,33.4379997253418 -208.33299255371094,39.0620002746582 -208.33299255371094,44.6870002746582 C-208.33299255371094,44.6870002746582 -208.33299255371094,107.18699645996094 -208.33299255371094,107.18699645996094 C-208.33299255371094,118.6449966430664 -198.95799255371094,128.02099609375 -187.5,128.02099609375 C-187.5,128.02099609375 -152.1959991455078,128.2740020751953 -134.54600524902344,128.03599548339844 C-121.0459976196289,127.85399627685547 -114.2959976196289,124.35399627685547 -108.74400329589844,119.14700317382812 C-53.8120002746582,67.62799835205078 43.32274627685547,-26.662433624267578 43.32274627685547,-26.662433624267578z"/></g></g></g></g></svg>